<svg width="24" height="24" viewBox="0 0 24 24" fill="none" xmlns="http://www.w3.org/2000/svg">
<path d="M15.5 0.5H1.5C0.947715 0.5 0.5 0.947715 0.5 1.5V15.5C0.5 16.0523 0.947715 16.5 1.5 16.5H15.5C16.0523 16.5 16.5 16.0523 16.5 15.5V1.5C16.5 0.947715 16.0523 0.5 15.5 0.5Z" fill="white" stroke="#616161" stroke-linecap="round"/>
<path d="M13.8233 12.8797C13.7586 12.7513 13.706 12.5227 13.6655 12.1938C13.1439 12.7313 12.5212 13 11.7973 13C11.1503 13 10.6185 12.8195 10.202 12.4586C9.78957 12.0936 9.58333 11.6324 9.58333 11.0749C9.58333 10.3971 9.84214 9.87166 10.3597 9.49866C10.8814 9.12166 11.6133 8.93316 12.5555 8.93316H13.6474V8.42179C13.6474 8.03275 13.5301 7.72393 13.2955 7.49532C13.061 7.2627 12.7153 7.14639 12.2583 7.14639C11.858 7.14639 11.5223 7.24666 11.2514 7.44719C10.9805 7.64773 10.845 7.89037 10.845 8.17513H9.71678C9.71678 7.85027 9.83203 7.53743 10.0625 7.23663C10.2971 6.93182 10.6125 6.69118 11.0088 6.51471C11.4091 6.33824 11.8479 6.25 12.325 6.25C13.0812 6.25 13.6736 6.4385 14.1023 6.81551C14.5309 7.1885 14.7533 7.70388 14.7695 8.36163V11.3576C14.7695 11.9552 14.8463 12.4305 15 12.7834V12.8797H13.8233ZM11.9611 12.0314C12.3129 12.0314 12.6465 11.9412 12.9619 11.7607C13.2773 11.5802 13.5058 11.3456 13.6474 11.0568V9.72126H12.7678C11.3929 9.72126 10.7055 10.1203 10.7055 10.9184C10.7055 11.2674 10.8228 11.5401 11.0573 11.7366C11.2918 11.9332 11.5931 12.0314 11.9611 12.0314Z" fill="#616162"/>
<path d="M7.59426 10.6511H3.98315L3.17213 13H2L5.29144 4H6.28597L9.58333 13H8.41712L7.59426 10.6511ZM4.3265 9.67445H7.25683L5.78871 5.46497L4.3265 9.67445Z" fill="#616162"/>
<path fill-rule="evenodd" clip-rule="evenodd" d="M19.5357 13.6393C19.2993 13.5144 19.05 13.4106 18.7904 13.3303L18.4091 11.5H16.5909L16.2096 13.3303C15.95 13.4106 15.7007 13.5144 15.4643 13.6393L13.9002 12.6145L12.6145 13.9002L13.6393 15.4643C13.5144 15.7007 13.4106 15.95 13.3303 16.2096L11.5 16.5909V18.4091L13.3303 18.7904C13.4106 19.05 13.5144 19.2993 13.6393 19.5357L12.6145 21.0998L13.9002 22.3855L15.4643 21.3607C15.7007 21.4856 15.95 21.5894 16.2096 21.6697L16.5909 23.5H18.4091L18.7904 21.6697C19.05 21.5894 19.2993 21.4856 19.5357 21.3607L21.0998 22.3855L22.3855 21.0998L21.3607 19.5357C21.4856 19.2993 21.5894 19.05 21.6697 18.7904L23.5 18.4091V16.5909L21.6697 16.2096C21.5894 15.95 21.4856 15.7007 21.3607 15.4643L22.3855 13.9002L21.0998 12.6145L19.5357 13.6393Z" fill="#D9D9D9" stroke="#616161" stroke-linejoin="round"/>
<path d="M20 17.5C20 18.8807 18.8807 20 17.5 20C16.1193 20 15 18.8807 15 17.5C15 16.1193 16.1193 15 17.5 15C18.8807 15 20 16.1193 20 17.5Z" fill="#A6A6A6"/>
<path d="M19 17.5C19 18.3284 18.3284 19 17.5 19C16.6716 19 16 18.3284 16 17.5C16 16.6716 16.6716 16 17.5 16C18.3284 16 19 16.6716 19 17.5Z" fill="#616162"/>
</svg>
