<svg width="16" height="16" viewBox="0 0 16 16" fill="none" xmlns="http://www.w3.org/2000/svg">
<path d="M10.5 0.5H1.5C0.947715 0.5 0.5 0.947715 0.5 1.5V10.5C0.5 11.0523 0.947715 11.5 1.5 11.5H10.5C11.0523 11.5 11.5 11.0523 11.5 10.5V1.5C11.5 0.947715 11.0523 0.5 10.5 0.5Z" fill="white" stroke="#616161" stroke-linecap="round"/>
<path d="M9.27585 8.91979C9.23603 8.83422 9.20368 8.68182 9.1788 8.46257C8.85778 8.82086 8.47456 9 8.02912 9C7.63096 9 7.30372 8.87968 7.04741 8.63904C6.79358 8.39572 6.66667 8.08824 6.66667 7.71658C6.66667 7.26471 6.82593 6.91444 7.14446 6.66578C7.46547 6.41444 7.91589 6.28877 8.49571 6.28877H9.1676V5.94786C9.1676 5.6885 9.09543 5.48262 8.9511 5.33021C8.80677 5.17513 8.594 5.09759 8.3128 5.09759C8.06644 5.09759 7.8599 5.16444 7.69317 5.29813C7.52644 5.43182 7.44308 5.59358 7.44308 5.78342H6.74879C6.74879 5.56684 6.81971 5.35829 6.96155 5.15775C7.10589 4.95455 7.29999 4.79412 7.54386 4.67647C7.79022 4.55882 8.06022 4.5 8.35386 4.5C8.81921 4.5 9.18378 4.62567 9.44756 4.87701C9.71134 5.12567 9.8482 5.46925 9.85816 5.90775V7.90508C9.85816 8.30348 9.90544 8.62032 10 8.85561V8.91979H9.27585ZM8.1299 8.35428C8.3464 8.35428 8.5517 8.29412 8.7458 8.1738C8.9399 8.05348 9.0805 7.89706 9.1676 7.70455V6.81417H8.62635C7.78027 6.81417 7.35722 7.08021 7.35722 7.6123C7.35722 7.84492 7.42939 8.02674 7.57372 8.15775C7.71805 8.28877 7.90345 8.35428 8.1299 8.35428Z" fill="#616162"/>
<path d="M5.44262 7.43407H3.2204L2.72131 9H2L4.0255 3H4.63752L6.66667 9H5.949L5.44262 7.43407ZM3.43169 6.78297H5.23497L4.33151 3.97665L3.43169 6.78297Z" fill="#616162"/>
<path fill-rule="evenodd" clip-rule="evenodd" d="M12.1964 7.28276C11.9994 7.17866 11.7917 7.09214 11.5753 7.02526L11.2576 5.5H9.74242L9.42466 7.02526C9.20831 7.09214 9.00059 7.17867 8.80359 7.28276L7.50014 6.42878L6.42877 7.50015L7.28275 8.8036C7.17866 9.0006 7.09214 9.20832 7.02526 9.42466L5.5 9.74242V11.2576L7.02526 11.5753C7.09213 11.7917 7.17866 11.9994 7.28275 12.1964L6.42877 13.4998L7.50014 14.5712L8.80359 13.7172C9.00059 13.8213 9.20831 13.9079 9.42466 13.9747L9.74242 15.5H11.2576L11.5753 13.9747C11.7917 13.9079 11.9994 13.8213 12.1964 13.7172L13.4998 14.5712L14.5712 13.4998L13.7172 12.1964C13.8213 11.9994 13.9079 11.7917 13.9747 11.5753L15.5 11.2576V9.74242L13.9747 9.42466C13.9079 9.20831 13.8213 9.00059 13.7172 8.80359L14.5712 7.50015L13.4998 6.42878L12.1964 7.28276Z" fill="#D9D9D9" stroke="#616161"/>
<path d="M12 10.5C12 11.3284 11.3284 12 10.5 12C9.67157 12 9 11.3284 9 10.5C9 9.67157 9.67157 9 10.5 9C11.3284 9 12 9.67157 12 10.5Z" fill="#888889"/>
</svg>
